<svg width="154" height="30" viewBox="0 0 154 30" fill="none" xmlns="http://www.w3.org/2000/svg">
<path d="M30.0612 19.5107L24.3253 0.480177H20.5192L14.7832 19.5107H18.0264L19.3934 14.6592H25.4242L26.818 19.5107H30.0612ZM22.4758 3.21413C22.9047 5.54604 23.6016 8.38721 24.6737 12.0057H20.1439C21.216 8.38721 21.9397 5.54604 22.3686 3.21413H22.4758Z" fill="black"/>
<path d="M35.6931 8.46762V14.9809C35.6931 17.9829 37.4353 19.7251 40.9466 19.7251C42.2331 19.7251 43.1177 19.5375 43.8146 19.4035V16.7499C43.1177 16.8571 42.3136 16.9375 41.4558 16.9375C39.7672 16.9375 38.8559 16.1066 38.8559 14.4984V8.46762H43.8146V6.10891H38.8559V1.4451L35.6931 2.70487V6.10891H32.021V8.46762H35.6931Z" fill="black"/>
<path d="M47.5166 6.10891L52.6629 19.3766L52.3948 20.1808C51.8856 21.789 51.0278 22.3786 49.5805 22.3786C49.2052 22.3786 48.7763 22.3518 48.3475 22.2982V24.791C48.8032 24.8982 49.366 24.925 49.8217 24.925C52.4752 24.925 54.4319 23.8528 55.6917 20.2612L60.8111 6.10891H57.4875L54.3247 16.4015L51.0815 6.10891H47.5166Z" fill="black"/>
<path d="M75.3418 11.3088C75.3418 7.5027 73.6263 5.78727 69.9275 5.78727C66.309 5.78727 64.1111 7.44909 63.8699 10.3975H67.1667C67.2739 8.89648 68.1852 8.06557 69.7666 8.06557C71.4017 8.06557 72.1253 8.95009 72.1253 10.8799V11.282L69.4986 11.6572C67.4079 11.9253 65.9873 12.3005 65.1296 12.8366C64.0307 13.5335 63.4678 14.5788 63.4678 15.919C63.4678 18.2241 65.2636 19.8323 67.8904 19.8323C70.1151 19.8323 71.5625 18.8942 72.3666 17.1252C72.3934 17.9025 72.4738 18.7066 72.581 19.5107H75.7438C75.4758 18.5993 75.3418 17.2324 75.3418 15.3561V11.3088ZM72.2058 14.0159C72.2058 16.1602 70.9192 17.554 68.9357 17.554C67.5688 17.554 66.7646 16.8303 66.7646 15.6242C66.7646 14.4448 67.6224 13.8283 69.6862 13.5067L72.2058 13.1314V14.0159Z" fill="black"/>
<path d="M82.8231 6.10891H79.8211V19.5107H82.9571V12.2737C82.9571 10.6387 83.6272 8.38721 86.0395 8.38721C87.2457 8.38721 88.3982 9.0305 88.3982 11.5768V19.5107H91.561V11.2284C91.561 9.00369 91.1054 7.71712 90.2477 6.88622C89.39 6.05531 88.2106 5.78727 87.1653 5.78727C84.9674 5.78727 83.52 7.07384 82.8231 8.70885V6.10891Z" fill="black"/>
<path d="M98.962 8.46762V14.9809C98.962 17.9829 100.704 19.7251 104.215 19.7251C105.502 19.7251 106.387 19.5375 107.083 19.4035V16.7499C106.387 16.8571 105.582 16.9375 104.725 16.9375C103.036 16.9375 102.125 16.1066 102.125 14.4984V8.46762H107.083V6.10891H102.125V1.4451L98.962 2.70487V6.10891H95.2899V8.46762H98.962Z" fill="black"/>
<path d="M119.497 3.85742V0.158534H115.583V3.85742H119.497ZM123.758 19.5107V17.0984H119.363V6.10891H112.447V8.52123H116.227V17.0984H112.045V19.5107H123.758Z" fill="black"/>
<path d="M139.924 19.5107L134.939 11.2284L139.656 6.10891H135.85L130.65 12.2201V0.078125H127.514V19.5107H130.65V15.4365L132.66 13.2923L136.172 19.5107H139.924Z" fill="black"/>
<path d="M80.922 29.8476H82.0272V25.8538H83.3359V24.9994H79.6133V25.8538H80.922V29.8476Z" fill="black"/>
<path d="M84.6289 29.8476H87.8972V28.9933H85.7206V27.7863H87.3751V26.9862H85.7206V25.8538H87.7887V24.9994H84.6289V29.8476Z" fill="black"/>
<path d="M91.389 29.9222C92.5824 29.9222 93.4436 29.3052 93.5657 28.105H92.4875C92.3994 28.7288 91.979 29.0339 91.3755 29.0339C90.5753 29.0339 90.1142 28.4508 90.1142 27.4472V27.393C90.1142 26.3894 90.6025 25.7927 91.3687 25.7927C91.979 25.7927 92.3044 26.1047 92.3858 26.6878H93.5114C93.3961 25.4944 92.5282 24.9248 91.3619 24.9248C89.9854 24.9248 88.9547 25.9284 88.9547 27.3998V27.454C88.9547 28.9458 89.8023 29.9222 91.389 29.9222Z" fill="black"/>
<path d="M94.8882 29.8476H95.9867V27.8473H97.9328V29.8476H99.0313V24.9994H97.9328V26.9794H95.9867V24.9994H94.8882V29.8476Z" fill="black"/>
<path d="M100.677 29.8476H101.653V26.3962L103.674 29.8476H104.772V24.9994H103.796V28.1931L101.952 24.9994H100.677V29.8476Z" fill="black"/>
<path d="M108.684 29.0475C107.89 29.0475 107.321 28.4372 107.321 27.4472V27.393C107.321 26.4166 107.829 25.7995 108.67 25.7995C109.518 25.7995 110.019 26.4437 110.019 27.3862V27.4405C110.019 28.4169 109.504 29.0475 108.684 29.0475ZM108.663 29.9222C110.175 29.9222 111.165 28.8712 111.165 27.4269V27.3727C111.165 25.9148 110.128 24.9316 108.67 24.9316C107.232 24.9316 106.175 25.9555 106.175 27.3998V27.454C106.175 28.8712 107.144 29.9222 108.663 29.9222Z" fill="black"/>
<path d="M112.572 29.8476H115.643V28.9865H113.67V24.9994H112.572V29.8476Z" fill="black"/>
<path d="M119.062 29.0475C118.269 29.0475 117.699 28.4372 117.699 27.4472V27.393C117.699 26.4166 118.208 25.7995 119.049 25.7995C119.896 25.7995 120.398 26.4437 120.398 27.3862V27.4405C120.398 28.4169 119.883 29.0475 119.062 29.0475ZM119.042 29.9222C120.554 29.9222 121.544 28.8712 121.544 27.4269V27.3727C121.544 25.9148 120.506 24.9316 119.049 24.9316C117.611 24.9316 116.553 25.9555 116.553 27.3998V27.454C116.553 28.8712 117.523 29.9222 119.042 29.9222Z" fill="black"/>
<path d="M125.168 29.9222C126.619 29.9222 127.446 29.0611 127.446 27.7659V27.2506H125.269V28.0507H126.361C126.341 28.6068 126.008 29.0746 125.195 29.0746C124.245 29.0746 123.845 28.4033 123.845 27.4676V27.4133C123.845 26.4234 124.34 25.7927 125.181 25.7927C125.764 25.7927 126.137 26.0504 126.232 26.62H127.324C127.209 25.4198 126.246 24.9248 125.168 24.9248C123.737 24.9248 122.699 25.9419 122.699 27.3998V27.454C122.699 28.8916 123.581 29.9222 125.168 29.9222Z" fill="black"/>
<path d="M128.878 29.8476H129.984V24.9994H128.878V29.8476Z" fill="black"/>
<path d="M131.667 29.8476H134.935V28.9933H132.758V27.7863H134.413V26.9862H132.758V25.8538H134.827V24.9994H131.667V29.8476Z" fill="black"/>
<path d="M138.005 29.9222C139.151 29.9222 139.856 29.2374 139.856 28.3762C139.856 27.3727 139.253 27.054 138.079 26.9048C137.334 26.7963 137.178 26.6336 137.178 26.2877C137.178 25.9623 137.422 25.7385 137.903 25.7385C138.385 25.7385 138.642 25.9419 138.71 26.3827H139.72C139.632 25.4198 138.995 24.9316 137.903 24.9316C136.832 24.9316 136.14 25.5486 136.14 26.3759C136.14 27.3116 136.649 27.6846 137.89 27.8473C138.602 27.9558 138.805 28.0914 138.805 28.4779C138.805 28.8576 138.486 29.1221 138.005 29.1221C137.286 29.1221 137.103 28.7627 137.056 28.3287H136.005C136.066 29.2984 136.676 29.9222 138.005 29.9222Z" fill="black"/>
<path d="M9.93829 15.2704V12.7307L4.58436 9.7334L9.93829 6.80475V4.24219L0.832031 9.45884V10.0537L9.93829 15.2704Z" fill="black"/>
<path d="M144.75 15.2933L153.879 10.0537V9.48172L144.75 4.24219V6.78187L150.104 9.77916L144.75 12.7078V15.2933Z" fill="black"/>
</svg>
