<svg width="110" height="46" viewBox="0 0 110 46" fill="none" xmlns="http://www.w3.org/2000/svg">
<path d="M26.424 27.4901C29.0226 27.4901 31.1292 25.4358 31.1292 22.9018C31.1292 20.3677 29.0226 18.3134 26.424 18.3134C23.8253 18.3134 21.7187 20.3677 21.7187 22.9018C21.7187 25.4358 23.8253 27.4901 26.424 27.4901Z" fill="#00ABEB"/>
<path d="M50.16 18.3131C48.5143 16.9724 46.1953 15.7878 43.4454 14.8584C42.8917 14.656 42.3268 14.4841 41.7533 14.3434C41.8666 13.9715 41.9551 13.5929 42.0182 13.2098C43.3392 7.02399 42.3877 2.17744 39.587 0.579922C38.2121 -0.193307 36.309 -0.193307 34.1412 0.579922C32.1319 1.30209 29.9117 2.64138 27.7438 4.49859C27.3204 4.85895 26.8461 5.27182 26.4227 5.6847C26.1056 5.42647 25.8408 5.1697 25.5251 4.91147C20.6612 0.680589 15.9036 -0.914016 13.1074 0.632444C11.7325 1.40567 10.7809 3.00319 10.4144 5.22076C10.0449 7.28222 10.1496 9.80908 10.7316 12.5927C10.8378 13.1602 10.9964 13.7263 11.1011 14.2938C10.4144 14.4995 9.78005 14.6542 9.1457 14.9124C3.3827 16.8717 0 19.81 0 22.9029C0 24.5077 0.951523 26.1505 2.74835 27.6459C4.44044 29.0377 6.81925 30.3259 9.67383 31.2553L11.1011 31.7192C10.9425 32.3378 10.7839 32.9564 10.6777 33.575C9.5676 39.4004 10.4668 43.7874 13.1627 45.3295C13.9394 45.7516 14.8171 45.9651 15.7061 45.9481C16.6038 45.9481 17.6615 45.7424 18.7717 45.3806C20.8857 44.6584 23.1597 43.2666 25.4323 41.3598C25.8019 41.0505 26.1729 40.7412 26.5424 40.3808C27.0182 40.8448 27.494 41.2562 27.9697 41.6691C31.3524 44.5038 34.578 45.9991 37.1678 45.9991C38.0382 46.0153 38.8968 45.8015 39.6528 45.3806C41.0801 44.6073 42.0316 42.9573 42.455 40.6887C42.8246 38.5236 42.7722 35.8946 42.1902 33.0585L41.8656 31.6652C42.1827 31.5616 42.4999 31.4595 42.8694 31.3559C49.0469 29.3455 52.856 26.1461 52.856 23.005C52.856 21.355 51.9044 19.7575 50.16 18.3131ZM34.9341 2.64138C36.4676 2.12638 37.6824 2.07386 38.4769 2.48674C40.0104 3.31103 41.0666 6.92041 39.7979 12.7459C39.7284 13.094 39.64 13.4383 39.5331 13.7774C37.2025 13.2463 34.8346 12.8844 32.4491 12.6948C31.1031 10.7897 29.6192 8.98089 28.0086 7.28222C28.3782 6.92187 28.8015 6.56005 29.2249 6.1997C31.2342 4.49713 33.1881 3.25997 34.9341 2.64138ZM33.7716 27.0769C32.9263 28.4687 32.0795 29.8095 31.2282 31.0466C29.6424 31.1502 28.0565 31.2013 26.3644 31.2013C24.7187 31.2013 23.0864 31.1502 21.5529 31.0466C20.6553 29.7584 19.7576 28.4206 18.9632 27.0769C18.1702 25.6851 17.3773 24.2933 16.6906 22.9015C17.3778 21.5097 18.1179 20.1178 18.9108 18.726C19.7037 17.3342 20.6029 15.9935 21.4542 14.7563C23.04 14.6527 24.6259 14.5506 26.2656 14.5506C27.872 14.5408 29.4778 14.6094 31.0771 14.7563C31.9224 16.0445 32.8216 17.3342 33.6205 18.726C34.4658 20.1178 35.2064 21.5097 35.8931 22.8504C35.3262 24.3221 34.6157 25.7375 33.7716 27.0769ZM37.2605 25.4721C37.947 26.95 38.5464 28.4649 39.0559 30.0093C37.4348 30.3763 35.7933 30.6515 34.1397 30.8336C34.6678 30.0093 35.2498 29.0829 35.7854 28.2076C36.309 27.2841 36.7788 26.3562 37.2605 25.4794V25.4721ZM26.4751 37.1231C25.351 35.9417 24.2922 34.7028 23.3034 33.4116C24.3072 33.4626 25.365 33.4626 26.3689 33.4626C27.4266 33.4626 28.5367 33.4626 29.593 33.4116C28.6228 34.7043 27.5825 35.9457 26.4766 37.1304L26.4751 37.1231ZM18.7567 30.8336C17.0122 30.6279 15.374 30.3697 13.8928 30.0604C14.3686 28.565 14.9506 27.0711 15.5849 25.5232C16.0607 26.3985 16.5888 27.3278 17.1185 28.2032C17.6481 29.0786 18.1762 30.0166 18.7582 30.8409L18.7567 30.8336ZM17.111 17.6873C16.5828 18.5626 16.1071 19.492 15.5775 20.3673C14.9431 18.8209 14.3611 17.378 13.8854 15.8826C15.4189 15.5733 17.0047 15.264 18.6968 15.0583C18.1762 15.9424 17.5942 16.8192 17.1185 17.6946L17.111 17.6873ZM26.4153 8.81993C27.5194 9.98654 28.5606 11.2083 29.5346 12.4804C28.4769 12.4293 27.4206 12.4293 26.3629 12.4293C25.3051 12.4293 24.3013 12.4293 23.2974 12.4804C24.3087 11.1994 25.3665 9.96227 26.4227 8.82868L26.4153 8.81993ZM35.7315 17.6435C35.2034 16.7681 34.6738 15.8928 34.1456 15.0656C35.7641 15.2519 37.3705 15.5271 38.9571 15.8899C38.4778 17.3972 37.9129 18.8774 37.265 20.3235C36.7788 19.4482 36.2566 18.5714 35.7315 17.6435ZM12.9458 12.1784C12.4177 9.6982 12.3638 7.38434 12.681 5.63072C12.9458 4.08426 13.5263 3.00465 14.3267 2.5378C15.8602 1.71351 19.5631 2.58886 24.1068 6.55859C24.3841 6.78536 24.6488 7.02643 24.8997 7.28076C23.2828 8.98646 21.7834 10.7946 20.4114 12.6934C18.0258 12.883 15.658 13.2448 13.3273 13.7759C13.1538 13.2098 13.0475 12.6948 12.9428 12.1784H12.9458ZM10.3516 29.1398C4.74715 27.2841 2.20975 24.6026 2.20975 22.9015C2.20975 21.2514 4.58856 18.7771 9.8758 17.0249C10.4578 16.8192 11.0383 16.6646 11.6711 16.4574C12.3055 18.5714 13.2046 20.7364 14.2609 23.005C13.2329 25.1394 12.3683 27.345 11.6741 29.6038C11.2507 29.4491 10.775 29.2945 10.3516 29.1398ZM15.6912 43.6255C15.1092 43.6255 14.6334 43.5219 14.3162 43.3162C12.889 42.4919 11.8851 39.2954 12.889 33.8828C12.9952 33.3153 13.1538 32.7492 13.2585 32.1817C15.6109 32.6813 17.9951 33.0259 20.3949 33.2131C21.7894 35.1276 23.3081 36.953 24.9416 38.6783C24.6244 38.9876 24.2549 39.2969 23.9377 39.5536C20.5026 42.4861 17.5418 43.6255 15.6912 43.6255ZM39.9565 33.3663C41.119 39.0372 40.0089 42.543 38.4769 43.3673C37.0496 44.1915 33.6654 43.4183 29.4374 39.8658C29.014 39.5055 28.5397 39.0926 28.1163 38.6797C29.7234 36.9416 31.207 35.0986 32.5568 33.1635C34.9605 32.9818 37.3464 32.6199 39.6932 32.081C39.7979 32.542 39.9042 32.9549 39.9565 33.3663ZM42.1244 29.1354C41.8353 29.2519 41.5344 29.3385 41.2267 29.3937C40.5924 27.3322 39.6408 25.1628 38.5337 22.846C39.5275 20.7523 40.3904 18.6018 41.1175 16.4063L42.7034 16.8703C45.1884 17.6946 47.25 18.7771 48.6773 19.9121C49.8937 20.8911 50.5804 21.9225 50.5804 22.7993C50.5834 24.6026 47.9397 27.2841 42.1244 29.1398V29.1354Z" fill="#00ABEB"/>
<path d="M59.446 15.9231V3.05594H64.6519C65.6484 3.05594 66.4988 3.22977 67.2033 3.57741C67.912 3.92087 68.451 4.40884 68.8204 5.0413C69.1941 5.66958 69.381 6.40885 69.381 7.25912C69.381 8.11358 69.192 8.84867 68.814 9.46438C68.436 10.0759 67.8884 10.545 67.171 10.8717C66.458 11.1984 65.5947 11.3618 64.581 11.3618H61.0954V9.17537H64.13C64.6626 9.17537 65.105 9.10417 65.4572 8.96176C65.8094 8.81935 66.0714 8.60573 66.2433 8.32091C66.4194 8.03609 66.5074 7.68216 66.5074 7.25912C66.5074 6.83189 66.4194 6.47168 66.2433 6.17849C66.0714 5.88529 65.8073 5.6633 65.4508 5.51251C65.0986 5.35754 64.654 5.28005 64.1171 5.28005H62.2358V15.9231H59.446ZM66.5718 10.0675L69.8513 15.9231H66.7716L63.563 10.0675H66.5718Z" fill="#00ABEB"/>
<path d="M75.6515 16.1116C74.6335 16.1116 73.7573 15.9105 73.0228 15.5084C72.2926 15.1021 71.7299 14.5283 71.3348 13.7869C70.9396 13.0414 70.742 12.1597 70.742 11.1419C70.742 10.1492 70.9396 9.27799 71.3348 8.52825C71.7299 7.7785 72.2862 7.1942 73.0035 6.77535C73.7251 6.3565 74.5713 6.14707 75.542 6.14707C76.1949 6.14707 76.8027 6.24969 77.3653 6.45493C77.9323 6.65598 78.4263 6.95964 78.8472 7.36593C79.2724 7.77222 79.6032 8.28322 79.8394 8.89893C80.0756 9.51045 80.1938 10.2267 80.1938 11.0476V11.7827H71.8373V10.1241H77.6102C77.6102 9.73873 77.5243 9.39736 77.3524 9.09998C77.1806 8.80259 76.9422 8.57013 76.6373 8.40259C76.3366 8.23086 75.9865 8.145 75.5871 8.145C75.1704 8.145 74.801 8.23924 74.4789 8.42772C74.161 8.61202 73.9119 8.86123 73.7315 9.17537C73.5511 9.48532 73.4588 9.83088 73.4545 10.212V11.789C73.4545 12.2665 73.5447 12.6791 73.7251 13.0267C73.9098 13.3744 74.1696 13.6424 74.5047 13.8309C74.8397 14.0194 75.237 14.1136 75.6966 14.1136C76.0016 14.1136 76.2808 14.0718 76.5342 13.988C76.7876 13.9042 77.0045 13.7786 77.1849 13.611C77.3653 13.4435 77.5028 13.2382 77.5973 12.9953L80.1358 13.1587C80.0069 13.7534 79.7428 14.2728 79.3433 14.7168C78.9481 15.1566 78.437 15.5 77.8099 15.7472C77.1871 15.9901 76.4676 16.1116 75.6515 16.1116Z" fill="#00ABEB"/>
<path d="M84.8069 16.1053C84.1755 16.1053 83.6128 15.9985 83.1188 15.7849C82.6249 15.5671 82.234 15.2466 81.9462 14.8236C81.6627 14.3964 81.521 13.8644 81.521 13.2278C81.521 12.6916 81.6219 12.2414 81.8238 11.877C82.0257 11.5126 82.3006 11.2194 82.6485 10.9974C82.9964 10.7754 83.3916 10.6078 83.834 10.4948C84.2807 10.3817 84.7489 10.3021 85.2386 10.256C85.8141 10.1974 86.278 10.1429 86.6302 10.0927C86.9824 10.0382 87.238 9.95862 87.3969 9.85391C87.5559 9.7492 87.6353 9.59422 87.6353 9.38899V9.35129C87.6353 8.95338 87.5065 8.64552 87.2487 8.42772C86.9953 8.20992 86.6345 8.10102 86.1663 8.10102C85.6724 8.10102 85.2794 8.20782 84.9873 8.42144C84.6952 8.63086 84.5019 8.89474 84.4074 9.21307L81.8689 9.01202C81.9978 8.42563 82.2512 7.91882 82.6292 7.49159C83.0072 7.06017 83.4947 6.72928 84.0917 6.49891C84.6931 6.26435 85.3889 6.14707 86.1792 6.14707C86.729 6.14707 87.2552 6.2099 87.7577 6.33555C88.2646 6.46121 88.7134 6.65598 89.1043 6.91985C89.4995 7.18373 89.8109 7.523 90.0385 7.93766C90.2662 8.34814 90.38 8.84029 90.38 9.41412V15.9231H87.7771V14.5848H87.6997C87.5408 14.8864 87.3282 15.1524 87.0619 15.3828C86.7956 15.6089 86.4756 15.787 86.1019 15.9168C85.7282 16.0424 85.2965 16.1053 84.8069 16.1053ZM85.5929 14.2581C85.9967 14.2581 86.3532 14.1807 86.6624 14.0257C86.9717 13.8665 87.2144 13.6529 87.3905 13.3848C87.5666 13.1168 87.6546 12.8131 87.6546 12.4738V11.4497C87.5687 11.5042 87.4506 11.5545 87.3003 11.6005C87.1543 11.6424 86.9889 11.6822 86.8042 11.7199C86.6195 11.7534 86.4348 11.7848 86.2501 11.8141C86.0654 11.8393 85.8979 11.8623 85.7475 11.8832C85.4254 11.9293 85.1441 12.0026 84.9035 12.1031C84.663 12.2037 84.4761 12.3398 84.343 12.5115C84.2098 12.6791 84.1433 12.8885 84.1433 13.1398C84.1433 13.5042 84.2786 13.7827 84.5492 13.9754C84.8241 14.1639 85.172 14.2581 85.5929 14.2581Z" fill="#00ABEB"/>
<path d="M96.9807 16.1116C95.9671 16.1116 95.0951 15.9021 94.3649 15.4833C93.639 15.0602 93.0806 14.4739 92.6898 13.7241C92.3032 12.9744 92.1099 12.1115 92.1099 11.1356C92.1099 10.1471 92.3054 9.28008 92.6962 8.53453C93.0914 7.78478 93.6519 7.20048 94.3778 6.78163C95.1037 6.35859 95.9671 6.14707 96.9679 6.14707C97.8312 6.14707 98.5872 6.29995 99.2358 6.60571C99.8844 6.91148 100.398 7.3408 100.776 7.89368C101.154 8.44657 101.362 9.09579 101.401 9.84135H98.8105C98.7375 9.35967 98.5442 8.97223 98.2307 8.67903C97.9214 8.38165 97.5155 8.23295 97.013 8.23295C96.5877 8.23295 96.2162 8.34605 95.8983 8.57222C95.5848 8.79422 95.34 9.11883 95.1638 9.54606C94.9877 9.97328 94.8997 10.4906 94.8997 11.0979C94.8997 11.7136 94.9856 12.2372 95.1574 12.6686C95.3335 13.1 95.5805 13.4288 95.8983 13.655C96.2162 13.8812 96.5877 13.9943 97.013 13.9943C97.3265 13.9943 97.6079 13.9314 97.857 13.8058C98.1104 13.6801 98.3187 13.4979 98.4819 13.2592C98.6495 13.0162 98.759 12.7251 98.8105 12.3859H101.401C101.358 13.1231 101.151 13.7723 100.782 14.3335C100.417 14.8906 99.9123 15.3262 99.268 15.6404C98.6237 15.9545 97.8613 16.1116 96.9807 16.1116Z" fill="#00ABEB"/>
<path d="M108.422 6.27273V8.28322H102.462V6.27273H108.422ZM103.815 3.96066H106.56V12.9576C106.56 13.2047 106.598 13.3974 106.676 13.5356C106.753 13.6697 106.86 13.7639 106.998 13.8183C107.14 13.8728 107.303 13.9 107.488 13.9C107.616 13.9 107.745 13.8896 107.874 13.8686C108.003 13.8435 108.102 13.8246 108.17 13.8121L108.602 15.8037C108.465 15.8456 108.271 15.8938 108.022 15.9482C107.773 16.0068 107.47 16.0424 107.114 16.055C106.452 16.0801 105.872 15.9943 105.374 15.7974C104.88 15.6006 104.496 15.2948 104.221 14.8801C103.946 14.4655 103.811 13.9419 103.815 13.3094V3.96066Z" fill="#00ABEB"/>
<path d="M59.6754 41.5769V26.1364H65.9224C67.1234 26.1364 68.1465 26.36 68.9918 26.8074C69.8371 27.2497 70.4814 27.8654 70.9247 28.6545C71.3731 29.4386 71.5973 30.3433 71.5973 31.3687C71.5973 32.394 71.3705 33.2987 70.9169 34.0828C70.4634 34.8669 69.8062 35.4776 68.9454 35.9149C68.0898 36.3522 67.0538 36.5708 65.8374 36.5708H61.8556V33.9547H65.2962C65.9404 33.9547 66.4713 33.8466 66.8888 33.6305C67.3115 33.4093 67.6259 33.1052 67.8321 32.7182C68.0434 32.3262 68.1491 31.8763 68.1491 31.3687C68.1491 30.856 68.0434 30.4087 67.8321 30.0267C67.6259 29.6396 67.3115 29.3406 66.8888 29.1295C66.4662 28.9134 65.9301 28.8053 65.2807 28.8053H63.0231V41.5769H59.6754Z" fill="#00ABEB"/>
<path d="M77.336 41.5769L72.8054 26.1364H76.4624L79.0833 36.8648H79.2148L82.1063 26.1364H85.2376L88.1214 36.8875H88.2606L90.8816 26.1364H94.5386L90.0079 41.5769H86.7452L83.7299 31.4818H83.6062L80.5987 41.5769H77.336Z" fill="#00ABEB"/>
<path d="M97.4649 41.5769H93.8775L99.3437 26.1364H103.658L109.116 41.5769H105.529L101.563 29.6648H101.439L97.4649 41.5769ZM97.2407 35.5078H105.714V38.0561H97.2407V35.5078Z" fill="#00ABEB"/>
</svg>
