<?xml version="1.0" encoding="utf-8"?>
<!-- Generator: Adobe Illustrator 19.2.1, SVG Export Plug-In . SVG Version: 6.00 Build 0)  -->
<svg version="1.1" id="Layer_1" xmlns="http://www.w3.org/2000/svg" xmlns:xlink="http://www.w3.org/1999/xlink" x="0px" y="0px"
	 viewBox="0 0 217 217" style="enable-background:new 0 0 217 217;" xml:space="preserve">
<style type="text/css">
	.st0{fill:#89D3E2;}
	.st1{fill:#FFFFFF;}
</style>
<g>
	<path class="st0" d="M108.5,1C48.6,1,0,49.6,0,109.5c0,26.1,9.2,50.1,24.6,68.8c2.4-19,21.3-35,47.9-42.6c9.7,9,22.3,14.5,36,14.5
		c13.4,0,25.7-5.2,35.3-13.9c26.8,8.3,45.4,25.3,46,45c16.9-19.1,27.2-44.3,27.2-71.8C217,49.6,168.4,1,108.5,1L108.5,1z"/>
	<path class="st1" d="M108.5,139.3c-6.9,0-13.4-1.9-19.2-5.2c-14-7.9-23.6-24.2-23.6-43c0-26.6,19.2-48.2,42.8-48.2
		c23.6,0,42.8,21.6,42.8,48.2c0,19.1-9.9,35.5-24.2,43.4C121.5,137.6,115.2,139.3,108.5,139.3L108.5,139.3z"/>
</g>
</svg>
