<?xml version="1.0" encoding="utf-8"?>
<!-- Generator: Adobe Illustrator 21.0.0, SVG Export Plug-In . SVG Version: 6.00 Build 0)  -->
<svg version="1.1" id="Layer_1" xmlns="http://www.w3.org/2000/svg" xmlns:xlink="http://www.w3.org/1999/xlink" x="0px" y="0px"
	 viewBox="0 0 120 60" style="enable-background:new 0 0 120 60;" xml:space="preserve">
<style type="text/css">
	.st0{opacity:0.5;fill:none;stroke:#161617;stroke-width:4;stroke-miterlimit:10;}
	.st1{opacity:0.1;}
	.st2{fill:#161617;}
	.st3{opacity:0.5;}
</style>
<path class="st0" d="M117.1,60H3.1c-1.6,0-3-1.3-3-3V3c0-1.6,1.3-3,3-3h114c1.7,0,3,1.4,3,3v54C120.1,58.7,118.8,60,117.1,60z"/>
<g class="st1">
	<path class="st2" d="M84.2,44.1c0.1,2.2-1.6,4-3.8,4.1l-39.3,1.4c-2.2,0.1-4-1.6-4.1-3.8L36,15.9c-0.1-2.2,1.6-4,3.8-4.1l39.3-1.4
		c2.2-0.1,4,1.6,4.1,3.8L84.2,44.1z M39.9,15c-0.4,0-0.8,0.4-0.8,0.8l1.1,29.9c0,0.4,0.4,0.8,0.8,0.8L80.3,45c0.4,0,0.8-0.4,0.8-0.8
		L80,14.3c0-0.4-0.4-0.8-0.8-0.8L39.9,15z M47.4,27.3c-2.6,0.1-4.8-1.9-4.9-4.5c-0.1-2.6,1.9-4.8,4.5-4.9c2.6-0.1,4.8,1.9,4.9,4.5
		C52.1,25,50,27.2,47.4,27.3z M77.9,42l-34.6,1.2l-0.2-4.7l7.6-8.1l4.1,3.8l12.1-13L77.5,31L77.9,42z"/>
</g>
<g class="st3">
	<path class="st2" d="M83.2,45.6c0,2.2-1.8,3.9-3.9,3.9H40c-2.2,0-3.9-1.8-3.9-3.9V15.8c0-2.2,1.8-3.9,3.9-3.9h39.3
		c2.2,0,3.9,1.8,3.9,3.9V45.6z M40,15c-0.4,0-0.8,0.4-0.8,0.8v29.9c0,0.4,0.4,0.8,0.8,0.8h39.3c0.4,0,0.8-0.4,0.8-0.8V15.8
		c0-0.4-0.4-0.8-0.8-0.8H40z M47,27.5c-2.6,0-4.7-2.1-4.7-4.7s2.1-4.7,4.7-4.7c2.6,0,4.7,2.1,4.7,4.7S49.6,27.5,47,27.5z M76.9,43.3
		H42.3v-4.7l7.9-7.9l3.9,3.9L66.7,22l10.2,10.2V43.3z"/>
</g>
</svg>
