<?xml version="1.0" encoding="utf-8"?>
<!-- Generator: Adobe Illustrator 20.0.0, SVG Export Plug-In . SVG Version: 6.00 Build 0)  -->
<svg version="1.1" id="Layer_1" xmlns="http://www.w3.org/2000/svg" xmlns:xlink="http://www.w3.org/1999/xlink" x="0px" y="0px"
	 viewBox="0 0 180 180" style="enable-background:new 0 0 180 180;" xml:space="preserve">
<style type="text/css">
	.st0{fill:#F6F6F6;}
	.st1{font-family:'Geometos';}
	.st2{font-size:44.7247px;}
	.st3{fill:#0C81C1;}
</style>
<circle class="st0" cx="89.8" cy="90.1" r="90"/>
<text transform="matrix(1 0 0 1 44.7572 104.7607)" class="st0 st1 st2">ES6</text>
<g>
	<circle class="st3" cx="89.8" cy="90" r="8.9"/>
	<path class="st3" d="M134.7,81.1c-3.1-2.6-7.5-4.9-12.7-6.7c-1-0.4-2.1-0.7-3.2-1c0.2-0.7,0.4-1.5,0.5-2.2
		c2.5-12,0.7-21.4-4.6-24.5c-2.6-1.5-6.2-1.5-10.3,0c-3.8,1.4-8,4-12.1,7.6c-0.8,0.7-1.7,1.5-2.5,2.3c-0.6-0.5-1.1-1-1.7-1.5
		c-9.2-8.2-18.2-11.3-23.5-8.3c-2.6,1.5-4.4,4.6-5.1,8.9c-0.7,4-0.5,8.9,0.6,14.3c0.2,1.1,0.5,2.2,0.7,3.3c-1.3,0.4-2.5,0.7-3.7,1.2
		C46.2,78.3,39.8,84,39.8,90c0,3.1,1.8,6.3,5.2,9.2c3.2,2.7,7.7,5.2,13.1,7c0.9,0.3,1.8,0.6,2.7,0.9c-0.3,1.2-0.6,2.4-0.8,3.6
		c-2.1,11.3-0.4,19.8,4.7,22.8c1.4,0.8,3,1.2,4.8,1.2c1.7,0,3.7-0.4,5.8-1.1c4-1.4,8.3-4.1,12.6-7.8c0.7-0.6,1.4-1.2,2.1-1.9
		c0.9,0.9,1.8,1.7,2.7,2.5c6.4,5.5,12.5,8.4,17.4,8.4c1.7,0,3.4-0.4,4.7-1.2c2.7-1.5,4.5-4.7,5.3-9.1c0.7-4.2,0.6-9.3-0.5-14.8
		c-0.2-0.9-0.4-1.8-0.6-2.7c0.6-0.2,1.2-0.4,1.9-0.6c11.7-3.9,18.9-10.1,18.9-16.2C139.8,87,138,83.9,134.7,81.1z M105.9,50.7
		c2.9-1,5.2-1.1,6.7-0.3c2.9,1.6,4.9,8.6,2.5,19.9c-0.1,0.6-0.3,1.3-0.5,2c-4.2-1-8.7-1.7-13.4-2.1c-2.7-3.9-5.6-7.5-8.4-10.5
		c0.7-0.7,1.5-1.4,2.3-2.1C98.9,54.3,102.6,51.9,105.9,50.7z M103.7,98.1c-1.6,2.7-3.2,5.3-4.8,7.7c-3,0.2-6,0.3-9.2,0.3
		c-3.1,0-6.2-0.1-9.1-0.3c-1.7-2.5-3.4-5.1-4.9-7.7c-1.5-2.7-3-5.4-4.3-8.1c1.3-2.7,2.7-5.4,4.2-8.1l0,0c1.5-2.7,3.2-5.3,4.8-7.7
		c3-0.2,6-0.4,9.1-0.4c3.1,0,6.1,0.1,9.1,0.4c1.6,2.5,3.3,5,4.8,7.7c1.6,2.7,3,5.4,4.3,8C106.7,92.7,105.3,95.4,103.7,98.1z
		 M110.3,95c1.4,3.1,2.5,6,3.4,8.8c-2.9,0.7-6,1.2-9.3,1.6c1-1.6,2.1-3.4,3.1-5.1C108.5,98.5,109.4,96.7,110.3,95z M89.9,117.6
		c-2-2.2-4.1-4.6-6-7.2c1.9,0.1,3.9,0.1,5.8,0.1c2,0,4.1,0,6.1-0.1C93.9,113,91.9,115.4,89.9,117.6z M75.3,105.4
		c-3.3-0.4-6.4-0.9-9.2-1.5c0.9-2.9,2-5.8,3.2-8.8c0.9,1.7,1.9,3.5,2.9,5.2C73.2,102,74.2,103.8,75.3,105.4z M72.2,79.9
		c-1,1.7-1.9,3.5-2.9,5.2c-1.2-3-2.3-5.8-3.2-8.7c2.9-0.6,5.9-1.2,9.1-1.6C74.2,76.5,73.1,78.2,72.2,79.9z M89.8,62.7
		c2,2.1,3.9,4.5,5.9,7.1c-2-0.1-4-0.1-6-0.1c-2,0-3.9,0-5.8,0.1C85.8,67.3,87.8,64.9,89.8,62.7z M107.4,79.8c-1-1.7-2-3.4-3-5
		c3.2,0.4,6.2,0.9,9.1,1.6c-0.9,2.8-1.9,5.7-3.2,8.6C109.4,83.3,108.4,81.6,107.4,79.8z M64.3,69.2c-1-4.8-1.1-9.3-0.5-12.7
		c0.5-3,1.6-5.1,3.1-6c2.9-1.6,9.9,0.1,18.5,7.8c0.5,0.4,1,0.9,1.5,1.4c-2.9,3.1-5.8,6.7-8.5,10.5c-4.7,0.4-9.2,1.1-13.4,2.1
		C64.7,71.2,64.5,70.2,64.3,69.2z M59.4,102.1C48.8,98.5,44,93.3,44,90c0-3.2,4.5-8,14.5-11.4c1.1-0.4,2.2-0.7,3.4-1.1
		c1.2,4.1,2.9,8.3,4.9,12.7c-2,4.3-3.7,8.7-4.9,12.8C61.1,102.7,60.2,102.4,59.4,102.1z M69.5,130.2c-1.1,0-2-0.2-2.6-0.6
		c-2.7-1.6-4.6-7.8-2.7-18.3c0.2-1.1,0.5-2.2,0.7-3.3c4.1,0.9,8.6,1.6,13.5,2c2.8,3.9,5.7,7.5,8.6,10.6c-0.6,0.6-1.3,1.2-1.9,1.7
		C78.6,128,73,130.2,69.5,130.2z M115.4,110.3c2.2,11,0.1,17.8-2.8,19.4c-2.7,1.6-9.1,0.1-17.1-6.8c-0.8-0.7-1.7-1.5-2.5-2.3
		c2.8-3.1,5.6-6.6,8.4-10.7c4.8-0.4,9.4-1.1,13.5-2.1C115.1,108.7,115.3,109.5,115.4,110.3z M119.5,102.1c-0.5,0.2-1.1,0.4-1.7,0.5
		c-1.2-4-3-8.2-5.1-12.7c2-4.3,3.6-8.5,4.9-12.5c1,0.3,2,0.6,3,0.9c4.7,1.6,8.6,3.7,11.3,5.9c2.3,1.9,3.6,3.9,3.6,5.6
		C135.5,93.3,130.5,98.5,119.5,102.1z"/>
</g>
</svg>
